<svg xmlns="http://www.w3.org/2000/svg" width="20.545" height="20.564" viewBox="0 0 20.545 20.564">
  <g id="组_518" data-name="组 518" transform="translate(-238.16 -436.01)">
    <g id="组_507" data-name="组 507" transform="translate(243.615 443.629)">
      <path id="路径_432" data-name="路径 432" class="cls-1" d="M277.588,494.034h8.129a.729.729,0,0,0,0-1.457H279.2l1.3-1.3a.729.729,0,0,0,0-1.03h0a.729.729,0,0,0-1.029,0l-2.425,2.424a.727.727,0,0,0-.162.779A.718.718,0,0,0,277.588,494.034Z" transform="translate(-276.835 -490.031)"/>
      <path id="路径_433" data-name="路径 433" class="cls-1" d="M287.093,525.411a.719.719,0,0,0-.7-.587h-8.129a.729.729,0,1,0,0,1.457h6.517l-1.3,1.3a.73.73,0,0,0,.512,1.245h0a.725.725,0,0,0,.515-.215l2.425-2.425A.727.727,0,0,0,287.093,525.411Z" transform="translate(-277.435 -519.917)"/>
    </g>
    <path id="路径_434" data-name="路径 434" class="cls-1" d="M258.433,445.02l-9.354-8.781a.863.863,0,0,0-.646-.227.875.875,0,0,0-.648.229l-9.35,8.776a.87.87,0,0,0,.567,1.5.878.878,0,0,0,.412-.089v7.109a3.045,3.045,0,0,0,3.04,3.033h11.953a3.042,3.042,0,0,0,3.044-3.034v-1.971a.87.87,0,1,0-1.739,0v1.971a1.3,1.3,0,0,1-1.3,1.294H242.453a1.3,1.3,0,0,1-1.3-1.294v-8.688l7.28-6.833,7.28,6.833v3.191a.87.87,0,1,0,1.739,0v-1.609a.854.854,0,0,0,.4.089.872.872,0,0,0,.578-1.5Z" transform="translate(0)"/>
  </g>
</svg>
