<svg xmlns="http://www.w3.org/2000/svg" width="18.637" height="18.74" viewBox="0 0 18.637 18.74">
  <g id="组_516" data-name="组 516" transform="translate(-176.76 -250.699)">
    <path id="路径_425" data-name="路径 425" class="cls-1" d="M186.081,251.952a4.382,4.382,0,0,1,4.378,4.377,4.2,4.2,0,0,1-.277,1.486.3.3,0,0,0,.317.4,6.327,6.327,0,0,1,.648-.034h0a.309.309,0,0,0,.3-.212,5.422,5.422,0,0,0,.26-1.647v0a5.627,5.627,0,0,0-11.255.008,5.565,5.565,0,0,0,2.284,4.49.3.3,0,0,1-.066.525,9.576,9.576,0,0,0-5.91,7.761.3.3,0,0,0,.3.335h.649a.3.3,0,0,0,.3-.262,8.607,8.607,0,0,1,6.819-7.124.3.3,0,0,0,.218-.16,7.186,7.186,0,0,1,.478-.794.3.3,0,0,0-.192-.476,4.367,4.367,0,0,1,.746-8.671Z" transform="translate(0 0)"/>
    <path id="路径_426" data-name="路径 426" class="cls-1" d="M290.973,355.906h-6.156a.879.879,0,0,1,0-1.759h6.156a.879.879,0,0,1,0,1.759Z" transform="translate(-96.455 -93.099)"/>
    <path id="路径_427" data-name="路径 427" class="cls-1" d="M284.652,340.573a.9.9,0,0,1-.462-1.506l1.616-1.66a.9.9,0,0,1,1.3,1.253l-1.616,1.66a.914.914,0,0,1-.835.253Zm.165,1.341h6.156a.879.879,0,1,1,0,1.759h-6.156a.879.879,0,1,1,0-1.759Z" transform="translate(-96.455 -77.788)"/>
    <path id="路径_428" data-name="路径 428" class="cls-1" d="M331.607,384.95a.9.9,0,0,1,.462,1.506l-1.616,1.66a.9.9,0,0,1-1.3-1.253l1.616-1.66A.913.913,0,0,1,331.607,384.95Z" transform="translate(-136.924 -120.802)"/>
  </g>
</svg>
