<svg xmlns="http://www.w3.org/2000/svg" width="28" height="28.132" viewBox="0 0 28 28.132">
  <defs>
  </defs>
  <g id="组_46" data-name="组 46" transform="translate(-12.032 -2.658)">
    <path id="路径_108" data-name="路径 108" class="cls-1" d="M40.032,18.84c-.487,6.683-6.819,11.949-13.871,11.949A14.13,14.13,0,0,1,23.886,2.714c1.647-.267,3.595.4,3.595,2.63l.009,9.989h9.091A3.2,3.2,0,0,1,40.032,18.84ZM14.686,16.662a11.474,11.474,0,0,0,22.358,3.63c.4-1.495,0-2.284-1.084-2.3h-9.8a1.328,1.328,0,0,1-1.326-1.328V6.356c0-.864-.873-.963-1.3-.864a11.493,11.493,0,0,0-8.854,11.168Z" transform="translate(0)"/>
    <path id="路径_109" data-name="路径 109" class="cls-1" d="M649.92,4.48l.4.062a4.6,4.6,0,0,1,.754.184,14.409,14.409,0,0,1,8.912,8.7,1.673,1.673,0,0,1,.1.4l.089.684h-3.393l-.078-.243-.037-.127a11.241,11.241,0,0,0-6.522-6.189l-.228-.083Z" transform="translate(-620.238 -1.772)"/>
  </g>
</svg>
