<svg xmlns="http://www.w3.org/2000/svg" width="26.738" height="29.077" viewBox="0 0 26.738 29.077">
  <defs>
  </defs>
  <path id="路径_76" data-name="路径 76" class="cls-1" d="M2229.232,1278.527l14.585,0h.021a6.016,6.016,0,0,0,6.016-6v-17.04a6.018,6.018,0,0,0-6-6.037h-14.773a6.049,6.049,0,0,0-5.963,6.115v17a6.042,6.042,0,0,0,6.114,5.964Zm-3.359-6.433h21.107v.432a3.277,3.277,0,0,1-3.243,3.245h-14.618a3.279,3.279,0,0,1-3.246-3.242Zm8.009-19.77v6.284a1.243,1.243,0,0,0,.207.663c.024.042.052.088.078.142a1.5,1.5,0,0,0,.794.634l.236.114h.366a1.319,1.319,0,0,0,.846-.315l2.411-1.574,2.242,1.524a1.411,1.411,0,0,0,.923.365,1.674,1.674,0,0,0,1.669-1.67v-6.167h.08a3.279,3.279,0,0,1,3.246,3.243v13.772h-21.107v-13.765a3.423,3.423,0,0,1,2.859-3.322v.072Zm7.134,0v3.98l-1.143-.713a2.65,2.65,0,0,0-1.007-.288l-.338-.027-.03.062a1.331,1.331,0,0,0-.714.439l-1.032.645v-4.1Z" transform="translate(-2223.117 -1249.452)"/>
</svg>
