<svg xmlns="http://www.w3.org/2000/svg" width="21.647" height="12.839" viewBox="0 0 21.647 12.839">
  <defs>
    <style>
      .cls-1 {
        fill: #fff;
      }
    </style>
  </defs>
  <path id="路径_48" data-name="路径 48" class="cls-1" d="M12.2,17.874,5.248,10.835,12.2,3.8a2.12,2.12,0,0,0,.483-.737,2.293,2.293,0,0,0,.161-.84,2.208,2.208,0,0,0-.161-.828A2.139,2.139,0,0,0,12.2.667a2.114,2.114,0,0,0-3.083,0L.716,9.133A2.307,2.307,0,0,0,.21,9.9,2.719,2.719,0,0,0,0,10.812a2.432,2.432,0,0,0,.115.885,1.519,1.519,0,0,0,.46.7L9.113,21a2.177,2.177,0,0,0,3.565-.736,2.3,2.3,0,0,0,.161-.84,2.208,2.208,0,0,0-.161-.828,2.142,2.142,0,0,0-.483-.725Zm0,0" transform="translate(0 12.839) rotate(-90)"/>
</svg>
