<svg id="组_91" data-name="组 91" xmlns="http://www.w3.org/2000/svg" width="29.035" height="29.018" viewBox="0 0 29.035 29.018">
  <defs>
    <style>
      .cls-1 {
        fill: #fc4f55;
      }
    </style>
  </defs>
  <path id="路径_190" data-name="路径 190" class="cls-1" d="M14.525,0a3.808,3.808,0,0,1,3.809,3.809l0,.5a10.886,10.886,0,0,1,7.071,10.2v7.255a3.627,3.627,0,0,1,0,7.255H3.643a3.627,3.627,0,0,1-.272-7.246l.272-.009V14.509a10.886,10.886,0,0,1,7.072-10.2v-.5A3.808,3.808,0,0,1,14.525,0Zm0,6.166a8.343,8.343,0,0,0-8.343,8.343v9.7L3.736,24.3l-.176,0a1.088,1.088,0,0,0,.083,2.173H25.407a1.088,1.088,0,0,0,0-2.176H22.868V14.509a8.343,8.343,0,0,0-8.343-8.343Zm0-3.99a1.632,1.632,0,0,0-1.632,1.572,11.049,11.049,0,0,1,3.263,0l0,.06a1.632,1.632,0,0,0-1.632-1.632Z" transform="translate(0)"/>
  <path id="路径_191" data-name="路径 191" class="cls-1" d="M357.108,384v5.441h4.534l-4.534,7.255v-5.441h-4.534Z" transform="translate(-342.583 -373.118)"/>
</svg>
