<svg id="组_163" data-name="组 163" xmlns="http://www.w3.org/2000/svg" width="24.602" height="24.602" viewBox="0 0 24.602 24.602">
  <defs>
    <style>
      .cls-1 {
        fill: #0cf;
      }
    </style>
  </defs>
  <path id="路径_235" data-name="路径 235" class="cls-1" d="M0,5.592A5.592,5.592,0,0,1,5.592,0H19.011A5.592,5.592,0,0,1,24.6,5.592V19.011A5.592,5.592,0,0,1,19.011,24.6H5.592A5.592,5.592,0,0,1,0,19.011ZM5.592,2.236A3.355,3.355,0,0,0,2.236,5.592V19.011a3.355,3.355,0,0,0,3.355,3.355H19.011a3.355,3.355,0,0,0,3.355-3.355V5.592a3.355,3.355,0,0,0-3.355-3.355Z" transform="translate(0 0)"/>
  <path id="路径_236" data-name="路径 236" class="cls-1" d="M207.531,200.234a1.123,1.123,0,0,1,1.123-1.123h2.807a3.368,3.368,0,0,1,3.368,3.368v2.807a1.123,1.123,0,1,1-2.246,0v-2.807a1.122,1.122,0,0,0-1.123-1.123h-2.807a1.123,1.123,0,0,1-1.123-1.123Zm-7.3,7.3a1.123,1.123,0,0,1,1.123,1.123v2.807a1.122,1.122,0,0,0,1.123,1.123h2.807a1.123,1.123,0,1,1,0,2.246h-2.807a3.368,3.368,0,0,1-3.368-3.368v-2.807a1.123,1.123,0,0,1,1.123-1.123Z" transform="translate(-194.327 -194.327)"/>
</svg>
