<svg xmlns="http://www.w3.org/2000/svg" width="20.212" height="17.264" viewBox="0 0 20.212 17.264">
  <defs>
  </defs>
  <path id="路径_441" data-name="路径 441" class="cls-1" d="M19.473,91.061a2.181,2.181,0,0,1-4.192.212H6.768a2.181,2.181,0,0,1-4.192-.212A2.754,2.754,0,0,1,.926,88.3l.209-2.839a3.13,3.13,0,0,1,1.818-2.6l.918-4.426a3.8,3.8,0,0,1,3.537-2.935h7.235a3.8,3.8,0,0,1,3.536,2.935l.918,4.426a3.132,3.132,0,0,1,1.818,2.6l.208,2.839a2.753,2.753,0,0,1-1.65,2.765Zm.209-5.51a1.891,1.891,0,0,0-1.32-1.627.631.631,0,0,1-.438-.534c0-.036-.007-.071-.009-.106a.423.423,0,0,0-.005-.056l-.941-4.536a2.538,2.538,0,0,0-2.328-1.932H7.407a2.537,2.537,0,0,0-2.328,1.932l-.941,4.537a.362.362,0,0,0-.005.055c0,.036-.005.073-.009.109a.63.63,0,0,1-.437.532,1.888,1.888,0,0,0-1.321,1.627l-.208,2.839A1.458,1.458,0,0,0,3.267,89.96a.632.632,0,0,1,.477.587.959.959,0,0,0,1.916.037.625.625,0,0,1,.615-.577h9.5a.624.624,0,0,1,.615.577.959.959,0,0,0,1.916-.037.631.631,0,0,1,.477-.587,1.458,1.458,0,0,0,1.107-1.57l-.207-2.839Zm-2.166,2.514a1.372,1.372,0,0,1-1.975,0,1.458,1.458,0,0,1,0-2.024,1.372,1.372,0,0,1,1.975,0,1.458,1.458,0,0,1,0,2.024Zm-1.185-4.85a.689.689,0,0,1-.547.237H6.264a.7.7,0,0,1-.555-.246.732.732,0,0,1-.142-.587c0-.016.006-.031.009-.046l.748-3.331a1.205,1.205,0,0,1,1.124-.964H14.6a1.205,1.205,0,0,1,1.123.964l.748,3.332c0,.015.007.03.009.046a.738.738,0,0,1-.149.6Zm-1.806-3.671h-7l-.593,2.641h8.186l-.593-2.641ZM6.508,88.066a1.371,1.371,0,0,1-1.974,0,1.456,1.456,0,0,1,0-2.024,1.371,1.371,0,0,1,1.974,0,1.456,1.456,0,0,1,0,2.024Z" transform="translate(-0.918 -75.493)"/>
</svg>
