<svg xmlns="http://www.w3.org/2000/svg" width="34.605" height="36.132" viewBox="0 0 34.605 36.132">
  <defs>
    <style>
      .cls-1 {
        fill: #0cf;
      }
    </style>
  </defs>
  <path id="路径_43" data-name="路径 43" class="cls-1" d="M108.039,93.35c0,1.593-.906,3.8-5.219,5.271a31.58,31.58,0,0,1-9.8,1.38,31.586,31.586,0,0,1-9.8-1.379C78.905,97.15,78,94.942,78,93.35a14.088,14.088,0,0,1,9.455-13.019,9.172,9.172,0,1,1,11.129,0A14.088,14.088,0,0,1,108.039,93.35Zm-8.731-20.3a6.288,6.288,0,1,0-6.288,6.288A6.288,6.288,0,0,0,99.308,73.045Zm-6.273,9.172H93c-6.685.007-12.121,5-12.121,11.133,0,1.819,4.876,3.767,12.136,3.767s12.136-1.948,12.136-3.767C105.155,87.215,99.719,82.224,93.035,82.217Zm19.57,5.516c0,.809-.36,2.243-2.625,3.223a13.187,13.187,0,0,0-.841-2.785,1.294,1.294,0,0,0,.583-.447,5.583,5.583,0,0,0-5.144-5.3,15.313,15.313,0,0,0-3.831-2.092,9.259,9.259,0,0,0,1.415-1.344,2.763,2.763,0,1,0,2.14-4.966,9.117,9.117,0,0,0-.158-2.924,5.642,5.642,0,0,1,3.827,9.382A8.191,8.191,0,0,1,112.605,87.733Z" transform="translate(-78 -63.868)"/>
</svg>
