<svg xmlns="http://www.w3.org/2000/svg" width="42.803" height="41.647" viewBox="0 0 42.803 41.647">
  <defs>
    <style>
      .cls-1 {
        fill: #0cf;
      }
    </style>
  </defs>
  <g id="组_9" data-name="组 9" transform="translate(0 -13.511)">
    <path id="路径_44" data-name="路径 44" class="cls-1" d="M21.4,17.3A17.6,17.6,0,0,0,6.237,25.816a16.64,16.64,0,0,0,0,17.038A17.6,17.6,0,0,0,21.4,51.371a17.279,17.279,0,0,0,17.51-17.038A17.278,17.278,0,0,0,21.4,17.3ZM0,34.333c0-11.5,9.583-20.822,21.4-20.822s21.4,9.323,21.4,20.825S33.22,55.158,21.4,55.158,0,45.834,0,34.336Z" transform="translate(0 0)"/>
    <path id="路径_45" data-name="路径 45" class="cls-1" d="M239.99,200.71a16.265,16.265,0,0,0-9.45,2.793,1.92,1.92,0,1,1-2.185-3.158,21.2,21.2,0,0,1,23.27,0,1.92,1.92,0,1,1-2.185,3.158,16.261,16.261,0,0,0-9.45-2.794Zm0-9.609a3.844,3.844,0,1,1,3.833-3.844,3.839,3.839,0,0,1-3.833,3.844Zm-7.668-3.844a7.668,7.668,0,1,0,7.668-7.688A7.678,7.678,0,0,0,232.323,187.257Z" transform="translate(-217.994 -159.117)"/>
  </g>
</svg>
