<svg xmlns="http://www.w3.org/2000/svg" width="25.5" height="22.1" viewBox="0 0 25.5 22.1">
  <defs>

  </defs>
  <g id="组_12" data-name="组 12" transform="translate(-32 -96)">
    <path id="路径_50" data-name="路径 50" class="cls-1" d="M288.85,545.7h10.2a.85.85,0,0,0,0-1.7h-10.2a.85.85,0,0,0,0,1.7Zm0,4.25h5.95a.85.85,0,1,0,0-1.7h-5.95a.85.85,0,1,0,0,1.7Z" transform="translate(-249.2 -436.1)"/>
    <path id="路径_51" data-name="路径 51" class="cls-1" d="M54.95,97.7h-3.4v-.85a.85.85,0,0,0-1.7,0v.85H39.65v-.85a.85.85,0,0,0-1.7,0v.85h-3.4A2.5,2.5,0,0,0,32,100.25v15.3a2.5,2.5,0,0,0,2.55,2.55h20.4a2.5,2.5,0,0,0,2.55-2.55v-15.3A2.5,2.5,0,0,0,54.95,97.7Zm.85,17.85a.8.8,0,0,1-.85.85H34.55a.8.8,0,0,1-.85-.85V104.5H55.8Zm0-12.75H33.7v-2.55a.8.8,0,0,1,.85-.85h3.4v.85a.85.85,0,0,0,1.7,0V99.4h10.2v.85a.85.85,0,0,0,1.7,0V99.4h3.4a.8.8,0,0,1,.85.85Z" transform="translate(0 0)"/>
  </g>
</svg>
