<svg xmlns="http://www.w3.org/2000/svg" width="18.9" height="18.903" viewBox="0 0 18.9 18.903">
  <path id="路径_442" data-name="路径 442" class="cls-1" d="M191.287,185.82a4.9,4.9,0,0,1,3.018,1.446,5.127,5.127,0,0,1,1.15,5.313,1.477,1.477,0,0,0,.341,1.537l5.628,5.688a1.153,1.153,0,0,1,0,1.615,1.088,1.088,0,0,1-1.553,0l-5.527-5.586a1.474,1.474,0,0,0-1.627-.32,4.943,4.943,0,0,1-5.458-1.076,5.016,5.016,0,0,1-1.45-3.492l.585.591a3.7,3.7,0,0,0,2.649,1.107,3.74,3.74,0,0,0,3.2-1.819,3.88,3.88,0,0,0-.641-4.684l-.319-.319m-.493-1.5c-.1,0-.192,0-.289.006a1.182,1.182,0,0,0-.783,2.013l.83.839a2.386,2.386,0,0,1,.43,2.877,2.252,2.252,0,0,1-3.544.443l-1.053-1.065a1.18,1.18,0,0,0-2.011.682,6.512,6.512,0,0,0,1.831,5.362,6.422,6.422,0,0,0,7.086,1.4l5.527,5.586a2.563,2.563,0,0,0,3.653,0,2.63,2.63,0,0,0,0-3.692l-5.628-5.689a6.573,6.573,0,0,0-1.49-6.849A6.385,6.385,0,0,0,190.794,184.32Z" transform="translate(-184.328 -184.32)"/>
</svg>
