<svg xmlns="http://www.w3.org/2000/svg" width="31.056" height="28.727" viewBox="0 0 31.056 28.727">
  <defs>
    <style>
      .cls-1 {
        fill: #fc4f55;
      }
    </style>
  </defs>
  <g id="组_217" data-name="组 217" transform="translate(556.821 -200.517)">
    <path id="路径_263" data-name="路径 263" class="cls-1" d="M-512.292,229.244h-18.263A1.648,1.648,0,0,1-532.2,227.6V202.163a1.648,1.648,0,0,1,1.646-1.646h18.263a1.648,1.648,0,0,1,1.646,1.646V227.6a1.648,1.648,0,0,1-1.646,1.646Zm-17.515-2.395h16.767V202.912h-16.767Z" transform="translate(-19.902)"/>
    <rect id="矩形_98" data-name="矩形 98" class="cls-1" width="31.056" height="2.395" rx="1.197" transform="translate(-556.821 226.849)"/>
    <rect id="矩形_99" data-name="矩形 99" class="cls-1" width="11.619" height="8.456" rx="2.344" transform="translate(-547.055 213.988)"/>
    <path id="路径_264" data-name="路径 264" class="cls-1" d="M-493.85,253.387a4.158,4.158,0,0,1-3.121-1.376,5.188,5.188,0,0,1-1.257-3.558,6.171,6.171,0,0,1,1.161-3.719,3.873,3.873,0,0,1,3.109-1.638,4.192,4.192,0,0,1,3.2,1.614,5.883,5.883,0,0,1,1.288,3.742,5.188,5.188,0,0,1-1.257,3.558A4.158,4.158,0,0,1-493.85,253.387Zm-.108-8.793c-1.555,0-2.773,1.7-2.773,3.86,0,2.023,1.185,3.436,2.881,3.436s2.881-1.413,2.881-3.436C-490.969,246.361-492.338,244.594-493.958,244.594Z" transform="translate(-47.368 -34.423)"/>
  </g>
</svg>
