<svg id="组_513" data-name="组 513" xmlns="http://www.w3.org/2000/svg" width="16.456" height="16.456" viewBox="0 0 16.456 16.456">
<path id="路径_414" data-name="路径 414" class="cls-1" d="M13.028,2.057a3.428,3.428,0,0,1,3.428,3.428v7.542a3.428,3.428,0,0,1-3.428,3.428h-9.6A3.428,3.428,0,0,1,0,13.028V5.485A3.428,3.428,0,0,1,3.428,2.057h9.6Zm0,1.371h-9.6A2.057,2.057,0,0,0,1.375,5.365l0,.121v7.542a2.057,2.057,0,0,0,1.936,2.054l.121,0h9.6a2.057,2.057,0,0,0,2.054-1.936l0-.121V5.485a2.057,2.057,0,0,0-1.936-2.054l-.121,0ZM9.931,7.2a.686.686,0,0,1,.08,1.367l-.08,0h-6.5A.686.686,0,0,1,3.348,7.2l.08,0h6.5ZM7.515,4.8a.686.686,0,0,1,.08,1.367l-.079,0H3.428A.686.686,0,0,1,3.348,4.8l.08,0H7.515ZM13.028,0a.686.686,0,0,1,.08,1.367l-.08,0h-9.6A.686.686,0,0,1,3.348,0l.08,0h9.6Z" transform="translate(0)"/>
  <path id="路径_415" data-name="路径 415" class="cls-1" d="M180.987,384.529a.686.686,0,0,1,1.325.345l-.021.077-1.48,4.576a.686.686,0,0,1-.858.443l-.075-.029-1.645-.741-1.181,1.022a.686.686,0,0,1-.577.155l-.087-.023-2.747-.911-1.717,2.536a.686.686,0,0,1-.883.224l-.069-.041a.686.686,0,0,1-.225-.883l.041-.069,2.009-2.966a.686.686,0,0,1,.7-.288l.08.022,2.87.95,1.218-1.053a.686.686,0,0,1,.648-.137l.082.03,1.346.605,1.245-3.847Z" transform="translate(-167.925 -377.883)"/>
</svg>
