<?xml version="1.0" standalone="no"?><!DOCTYPE svg PUBLIC "-//W3C//DTD SVG 1.1//EN" "http://www.w3.org/Graphics/SVG/1.1/DTD/svg11.dtd"><svg t="1589448555945" class="icon" viewBox="0 0 1024 1024" version="1.1" xmlns="http://www.w3.org/2000/svg" p-id="5257" xmlns:xlink="http://www.w3.org/1999/xlink" width="200" height="200"><defs><style type="text/css"></style></defs><path d="M768.768 963.776H254.976a191.104 191.104 0 0 1-190.848-190.784V191.104A191.104 191.104 0 0 1 254.976 0.256h513.792a191.104 191.104 0 0 1 190.912 190.848v581.824a191.232 191.232 0 0 1-190.912 190.848zM254.976 54.784a136.512 136.512 0 0 0-136.32 136.32v581.888a136.512 136.512 0 0 0 136.32 136.192h513.792a136.512 136.512 0 0 0 136.32-136.192V191.104a136.512 136.512 0 0 0-136.32-136.32H254.976z" p-id="5258"></path><path d="M704.512 163.84H589.44a109.184 109.184 0 0 0-108.928 109.056v85.824c0 60.16 48.768 108.992 108.928 109.12h115.072c60.16 0 109.056-48.896 109.12-109.12V272.896a109.184 109.184 0 0 0-109.12-109.056z m54.592 194.88a54.592 54.592 0 0 1-54.592 54.592H589.44a54.656 54.656 0 0 1-54.4-54.592V272.896c0-30.08 24.32-54.464 54.4-54.528h115.072c30.08 0 54.528 24.32 54.592 54.528v85.824zM344.128 218.368H238.848a27.328 27.328 0 1 1 0-54.528h105.28a27.264 27.264 0 1 1 0 54.528z m0 195.456H238.848a27.264 27.264 0 1 1 0-54.528h105.28a27.264 27.264 0 1 1 0 54.528z m442.24 195.456H238.848a27.328 27.328 0 0 1 0-54.592h547.52a27.328 27.328 0 1 1 0 54.592zM589.44 804.672H238.848a27.328 27.328 0 1 1 0-54.464H589.44a27.264 27.264 0 1 1 0 54.464z" p-id="5259"></path></svg>