<svg xmlns="http://www.w3.org/2000/svg" xmlns:xlink="http://www.w3.org/1999/xlink" width="25" height="25" viewBox="0 0 25 25">
  <defs>
    <style>
      .cls-1 {
        opacity: 0.67;
        fill: url(#radial-gradient);
      }

      .cls-2 {
        fill: #ff2c2c;
      }
    </style>
    <radialGradient id="radial-gradient" cx="0.5" cy="0.5" r="0.5" gradientUnits="objectBoundingBox">
      <stop offset="0" stop-color="#00cbfe"/>
      <stop offset="0" stop-color="#ff2c2c" stop-opacity="0.702"/>
      <stop offset="1" stop-color="#ff2c2c" stop-opacity="0"/>
    </radialGradient>
  </defs>
  <g id="组_71" data-name="组 71" transform="translate(-1782 -47)">
    <circle id="椭圆_66" data-name="椭圆 66" class="cls-1" cx="12.5" cy="12.5" r="12.5" transform="translate(1782 47)"/>
    <path id="路径_158" data-name="路径 158" class="cls-2" d="M110.137,67.219a1.459,1.459,0,0,0-.184.015,1.409,1.409,0,0,0-.9,2.271,1.517,1.517,0,0,0,.124.137l.068.062a6.51,6.51,0,0,1,.841.849,6.34,6.34,0,1,1-9.883.082,6.588,6.588,0,0,1,.711-.76c.087-.077.175-.152.261-.23a1.407,1.407,0,0,0,.418-1.174,1.412,1.412,0,0,0-.388-.818,1.411,1.411,0,0,0-1.356-.385,1.439,1.439,0,0,0-.421.183,2.738,2.738,0,0,0-.319.259c-.146.129-.288.263-.426.4a9.16,9.16,0,1,0,14.846,10.224,9.239,9.239,0,0,0,.732-4.949A9.128,9.128,0,0,0,112,68.45a9.679,9.679,0,0,0-.707-.706c-.073-.064-.147-.128-.221-.191a1.318,1.318,0,0,0-.148-.11,1.427,1.427,0,0,0-.421-.182,1.717,1.717,0,0,0-.273-.04h-.092m-3.545,8.054a1.409,1.409,0,0,1-2.818,0V65.409a1.409,1.409,0,1,1,2.818,0Z" transform="translate(1688.999 -16.3)"/>
  </g>
</svg>
