<svg id="组_19" data-name="组 19" xmlns="http://www.w3.org/2000/svg" width="22.66" height="26.583" viewBox="0 0 22.66 26.583">
  <defs>
    <style>
      .cls-1 {
        fill: #0cf;
      }
    </style>
  </defs>
  <path id="路径_64" data-name="路径 64" class="cls-1" d="M157.825,108.754a12.915,12.915,0,0,1-2.368-.2,7.982,7.982,0,0,1-4.541-2.6,14.987,14.987,0,0,1-1.815-2.746c-.169-.3-.337-.6-.513-.9a29.344,29.344,0,0,0-2.247-3.327,5.06,5.06,0,0,1-1.417-4.17,3.07,3.07,0,0,1,4.663-1.957,4.942,4.942,0,0,1,.466.331V87.06a2.861,2.861,0,0,1,2.915-2.794,3.071,3.071,0,0,1,.938.148,2.942,2.942,0,0,1,5.655-.216,3,3,0,0,1,.992-.169,2.861,2.861,0,0,1,2.915,2.794v1.154a3.144,3.144,0,0,1,.884-.128,2.982,2.982,0,0,1,3.077,2.794c0,.2.175,5.594,0,8.192-.4,6.3-3.914,9.919-9.6,9.919Zm-9.9-14.359a1.087,1.087,0,0,0-.4.081,1.046,1.046,0,0,0-.614.762,3.294,3.294,0,0,0,1.012,2.483,30.988,30.988,0,0,1,2.409,3.556l.54.938a14.043,14.043,0,0,0,1.565,2.4,6.073,6.073,0,0,0,3.374,1.943,10.836,10.836,0,0,0,2.024.169c5.837,0,7.355-4.366,7.6-8.036.169-2.49,0-7.962,0-8.016,0-.418-.526-.8-1.053-.8a.837.837,0,0,0-.884.769v5.162a1.012,1.012,0,1,1-2.024,0V86.824a.9.9,0,0,0-1.781,0v8.995a1.012,1.012,0,1,1-2.024,0V84.935a.9.9,0,0,0-1.775,0v10.87a1.012,1.012,0,0,1-2.024,0V87.033a.9.9,0,0,0-1.781,0V95.94a1.007,1.007,0,0,1-1.957.337l-.088-.121c-.135-.2-.277-.4-.425-.594a4.366,4.366,0,0,0-1.093-1.039,1.073,1.073,0,0,0-.6-.128ZM150.052,95.974Z" transform="translate(-144.844 -82.171)"/>
</svg>
