<svg xmlns="http://www.w3.org/2000/svg" width="25.478" height="27.701" viewBox="0 0 25.478 27.701">
  <defs>
  </defs>
  <g id="组_26" data-name="组 26" transform="translate(-2032.938 -1195.53)">
    <path id="路径_67" data-name="路径 67" class="cls-1" d="M2056.746,1197.228a5.712,5.712,0,0,0-4.06-1.7h-14.051a5.772,5.772,0,0,0-5.7,5.84v16.165a5.778,5.778,0,0,0,5.766,5.7h13.87l0-.5h.033l.036.5a5.83,5.83,0,0,0,4.071-1.668,5.717,5.717,0,0,0,1.7-4.061v-16.2A5.705,5.705,0,0,0,2056.746,1197.228Zm-17.129,1.083v22.252h-.945a3.1,3.1,0,0,1-3.065-3.061v-16.129a3.218,3.218,0,0,1,2.671-3.131v.069Zm2.67,0h10.288a3.1,3.1,0,0,1,3.064,3.059V1217.5a3.1,3.1,0,0,1-3.06,3.065h-10.292Z"/>
    <path id="路径_68" data-name="路径 68" class="cls-1" d="M2052.822,1211.92a1.4,1.4,0,0,0-1.93,0l-2.206,2.2-1.427-1.427a1.366,1.366,0,0,0-1.931,1.932l2.353,2.352a1.353,1.353,0,0,0,.873.353c.032,0,.065,0,.1,0a1.748,1.748,0,0,0,1.056-.372l3.115-3.115A1.368,1.368,0,0,0,2052.822,1211.92Z"/>
    <path id="路径_69" data-name="路径 69" class="cls-1" d="M2046.46,1203.651l4.944,0a1.3,1.3,0,0,0,.166.011,1.233,1.233,0,0,0,.172-.012,1.286,1.286,0,0,0,.61-2.3,1.212,1.212,0,0,0-.885-.257h-5.008a1.279,1.279,0,0,0,0,2.558Zm5.216-.5Z"/>
  </g>
</svg>
