<svg xmlns="http://www.w3.org/2000/svg" width="30.464" height="37" viewBox="0 0 30.464 37">
  <defs>
  </defs>
  <path id="路径_126" data-name="路径 126" class="cls-1" d="M102.8,0a13.032,13.032,0,0,0-1.77.08A15.529,15.529,0,0,0,87.6,13.191a15.073,15.073,0,0,0,5.55,13.835,5.092,5.092,0,0,0,4.987,4.263h9.089a5.029,5.029,0,0,0,4.987-4.263A15.021,15.021,0,0,0,117.921,15.2,15.02,15.02,0,0,0,102.8,0Zm6.435,25.417V26.3a1.82,1.82,0,0,1-1.85,1.85h-2.976v-9.33l.885,1.046a1.711,1.711,0,0,0,1.207.563h.08a1.5,1.5,0,0,0,1.207-.724l2.735-4.343a1.629,1.629,0,0,0-2.735-1.77l-1.609,2.493-2.252-2.654a1.612,1.612,0,0,0-2.413,0L99.26,16.087l-1.609-2.493a1.629,1.629,0,0,0-2.735,1.77l2.735,4.343a1.5,1.5,0,0,0,1.207.724,1.764,1.764,0,0,0,1.367-.563l.885-1.046v9.33H98.134a1.82,1.82,0,0,1-1.85-1.85v-.885a12.048,12.048,0,0,1-5.55-11.743A12.288,12.288,0,0,1,101.432,3.3a7.359,7.359,0,0,1,1.367-.08,12.019,12.019,0,0,1,6.435,22.2Zm-2.413,8.365H98.777a1.609,1.609,0,0,0,0,3.217h8.043a1.609,1.609,0,1,0,0-3.217Z" transform="translate(-87.459)"/>
</svg>
