<?xml version="1.0" standalone="no"?><!DOCTYPE svg PUBLIC "-//W3C//DTD SVG 1.1//EN" "http://www.w3.org/Graphics/SVG/1.1/DTD/svg11.dtd"><svg t="1588923593570" class="icon" viewBox="0 0 1024 1024" version="1.1" xmlns="http://www.w3.org/2000/svg" p-id="6655" xmlns:xlink="http://www.w3.org/1999/xlink" width="200" height="200"><defs><style type="text/css"></style></defs><path d="M684.70784 84.50048c12.65664 5.14048 21.05344 17.03936 21.07392 29.85984l0.1024 75.55072c0.06144 32.62464-27.77088 57.67168-62.11584 55.93088a67.11296 67.11296 0 0 1-21.85216-4.87424c-32.19456-13.08672-48.5376-47.96416-36.53632-77.9264 2.60096-6.49216 6.4512-12.43136 11.34592-17.5104l52.224-54.272c8.86784-9.216 23.12192-11.89888 35.75808-6.7584z m254.81216 604.13952c-5.12 12.73856-16.93696 21.17632-29.696 21.1968l-75.03872 0.12288c-32.41984 0.04096-57.30304-27.9552-55.56224-62.54592 0.36864-7.51616 2.00704-14.9504 4.83328-21.99552 13.0048-32.39936 47.65696-48.86528 77.4144-36.7616 6.47168 2.62144 12.36992 6.49216 17.408 11.42784l53.92384 52.55168c9.15456 8.92928 11.81696 23.26528 6.71744 36.00384zM84.48 340.93056c5.12-12.71808 16.93696-21.17632 29.696-21.1968l75.03872-0.1024c7.04512 0 13.94688 1.3312 20.41856 3.95264 29.73696 12.0832 43.3152 48.16896 30.3104 80.56832a67.9936 67.9936 0 0 1-11.69408 19.21024c-22.6304 26.09152-59.84256 28.83584-83.1488 6.144l-53.90336-52.57216c-9.15456-8.92928-11.81696-23.26528-6.71744-36.00384z m247.33696-253.3376c12.57472-5.34528 26.86976-2.90816 35.88096 6.144l53.16608 53.32992c22.9376 23.04 20.8896 60.55936-4.64896 83.7632-5.5296 5.05856-11.93984 9.15456-18.88256 12.12416-31.9488 13.66016-68.03456 0.6144-80.56832-29.10208a54.84544 54.84544 0 0 1-4.28032-20.48L311.296 117.84192c-0.2048-12.82048 7.9872-24.86272 20.52096-30.22848z m604.61056 245.8624c5.3248 12.63616 2.90816 27.0336-6.08256 36.10624l-53.00224 53.49376c-22.89664 23.12192-60.14976 21.03296-83.23072-4.66944a67.9936 67.9936 0 0 1-12.02176-18.98496c-13.55776-32.1536-0.6144-68.48512 28.91776-81.1008 6.41024-2.74432 13.312-4.1984 20.33664-4.3008l75.03872-1.2288c12.73856-0.2048 24.71936 8.04864 30.04416 20.6848zM87.552 696.1152c-5.3248-12.63616-2.90816-27.0336 6.10304-36.10624l52.98176-53.49376c4.97664-5.0176 10.81344-8.99072 17.2032-11.73504 29.55264-12.61568 64.49152 3.23584 78.04928 35.40992 2.94912 6.9632 4.7104 14.39744 5.2224 21.9136 2.33472 34.52928-22.05696 62.976-54.4768 63.488L117.59616 716.8c-12.73856 0.2048-24.69888-8.02816-30.04416-20.6848zM286.72 512c0-124.416 100.864-225.28 225.28-225.28s225.28 100.864 225.28 225.28c0 46.24384-26.25536 95.08864-78.76608 146.55488a122.88 122.88 0 0 0-32.768 56.32l-3.2768 12.41088A40.96 40.96 0 0 1 582.8608 757.76h-141.7216a40.96 40.96 0 0 1-39.60832-30.47424l-3.2768-12.41088a122.88 122.88 0 0 0-32.768-56.32C312.97536 607.08864 286.72 558.24384 286.72 512z m212.992-143.36a131.072 131.072 0 0 0-131.072 131.072 32.768 32.768 0 1 0 65.536 0 65.536 65.536 0 0 1 65.536-65.536 32.768 32.768 0 1 0 0-65.536zM573.44 942.08a20.48 20.48 0 0 1-20.48 20.48h-81.92a20.48 20.48 0 0 1-20.48-20.48c0-12.55424-7.08608-24.02304-18.30912-29.63456L430.08 911.36c-12.55424-6.26688-20.48-19.10784-20.48-33.13664V839.68a40.96 40.96 0 0 1 40.96-40.96h122.88a40.96 40.96 0 0 1 40.96 40.96v38.54336c0 14.0288-7.92576 26.86976-20.48 33.13664l-2.17088 1.08544A33.13664 33.13664 0 0 0 573.44 942.08z" p-id="6656"></path></svg>