<svg xmlns="http://www.w3.org/2000/svg" width="19.026" height="19.026" viewBox="0 0 19.026 19.026">
  <g id="组_519" data-name="组 519" transform="translate(-392.149 -436.512)">
    <path id="路径_435" data-name="路径 435" class="cls-1" d="M408.354,436.512H394.97a2.827,2.827,0,0,0-2.821,2.821v13.384a2.828,2.828,0,0,0,2.821,2.821h9.416a.909.909,0,0,0,0-1.819H394.97a1,1,0,0,1-1-1V439.333a1,1,0,0,1,1-1h13.384a1,1,0,0,1,1,1v13.384a1,1,0,0,1-1,1h-.214a.909.909,0,0,0,0,1.819h.214a2.828,2.828,0,0,0,2.821-2.822V439.333A2.827,2.827,0,0,0,408.354,436.512Z" transform="translate(0 0)"/>
    <path id="路径_436" data-name="路径 436" class="cls-1" d="M421.054,540.821a.909.909,0,0,0,0,1.819h3.6a.909.909,0,0,0,0-1.819Z" transform="translate(-24.404 -90.926)"/>
    <path id="路径_437" data-name="路径 437" class="cls-1" d="M430.045,503.567h-9.1a.91.91,0,0,0,0,1.819h9.1a.91.91,0,0,0,0-1.819Z" transform="translate(-24.313 -58.451)"/>
    <path id="路径_438" data-name="路径 438" class="cls-1" d="M500.521,467.223a.909.909,0,0,0-.909-.909h-.074a.882.882,0,0,0-.872.909.941.941,0,0,0,.947.909.909.909,0,0,0,.909-.91Z" transform="translate(-92.849 -25.978)"/>
    <path id="路径_439" data-name="路径 439" class="cls-1" d="M421.051,468.133h7.28a.909.909,0,1,0,0-1.819h-7.28a.909.909,0,0,0,0,1.819Z" transform="translate(-24.401 -25.978)"/>
  </g>
</svg>
