<svg id="组件_22_1" data-name="组件 22 – 1" xmlns="http://www.w3.org/2000/svg" xmlns:xlink="http://www.w3.org/1999/xlink" width="202" height="48.217" viewBox="0 0 202 48.217">
  <defs>
    <style>
      .cls-1 {
        fill: url(#radial-gradient);
      }

      .cls-2 {
        fill: url(#radial-gradient-2);
      }

      .cls-3 {
        fill: url(#radial-gradient-3);
      }

      .cls-4 {
        fill: url(#radial-gradient-4);
      }

      .cls-5 {
        fill: url(#radial-gradient-5);
      }

      .cls-6 {
        fill: url(#radial-gradient-6);
      }

      .cls-7 {
        fill: #fff;
      }
    </style>
    <radialGradient id="radial-gradient" cx="0.5" cy="0.5" fx="0.834635317325592" r="0.391" gradientTransform="translate(-0.556) scale(2.112 1)" gradientUnits="objectBoundingBox">
      <stop offset="0.202" stop-color="#579bce"/>
      <stop offset="0.236" stop-color="#4d96cb"/>
      <stop offset="0.291" stop-color="#348bc5"/>
      <stop offset="0.361" stop-color="#0b79ba"/>
      <stop offset="0.378" stop-color="#0075b8"/>
      <stop offset="0.782" stop-color="#003478"/>
    </radialGradient>
    <radialGradient id="radial-gradient-2" cx="0.5" cy="0.5" r="0.363" gradientTransform="translate(-1.676) scale(4.353 1)" gradientUnits="objectBoundingBox">
      <stop offset="0.03" stop-color="#003478"/>
      <stop offset="0.534" stop-color="#0075b8"/>
      <stop offset="0.711" stop-color="#579bce"/>
      <stop offset="0.875" stop-color="#579bce"/>
      <stop offset="1" stop-color="#579bce"/>
    </radialGradient>
    <radialGradient id="radial-gradient-3" cx="0.5" cy="0.5" fx="1.1061533689498901" fy="-0.10626956075429916" r="0.997" gradientTransform="translate(0.001)" gradientUnits="objectBoundingBox">
      <stop offset="0.308" stop-color="#003478"/>
      <stop offset="0.652" stop-color="#0075b8"/>
      <stop offset="0.832" stop-color="#579bce"/>
    </radialGradient>
    <radialGradient id="radial-gradient-4" cx="0.5" cy="0.5" fx="1.0479038953781128" fy="-0.18843261897563934" r="1.132" gradientTransform="translate(0.102) scale(0.795 1)" gradientUnits="objectBoundingBox">
      <stop offset="0" stop-color="#579bce"/>
      <stop offset="0.034" stop-color="#4f91c6"/>
      <stop offset="0.089" stop-color="#3978b0"/>
      <stop offset="0.16" stop-color="#164f8e"/>
      <stop offset="0.201" stop-color="#003478"/>
      <stop offset="0.775" stop-color="#0d4184"/>
    </radialGradient>
    <radialGradient id="radial-gradient-5" cy="0.5" fx="1.045926809310913" fy="-0.19242089986801147" r="1.139" gradientTransform="translate(0.106) scale(0.788 1)" xlink:href="#radial-gradient-3"/>
    <radialGradient id="radial-gradient-6" cy="0.5" fx="0.5986971855163574" fy="1.0976576805114746" r="0.991" gradientTransform="translate(-0.006) scale(1.011 1)" xlink:href="#radial-gradient-3"/>
  </defs>
  <g id="组_53" data-name="组 53">
    <path id="路径_317" data-name="路径 317" class="cls-1" d="M186.448,700.691l-21.515,21.626s-2.427,2.758,2.1,6.62,20.081,19.971,20.081,19.971a40.132,40.132,0,0,1-8.275-21.626C178.173,714.7,186.448,700.691,186.448,700.691Z" transform="translate(-164.282 -700.691)"/>
    <path id="路径_318" data-name="路径 318" class="cls-2" d="M238.3,700.912l-2.759-.221a61.488,61.488,0,0,0-7.668,23.529c-.97,10.734,5.462,21.708,8.33,24.688l2.648-.221s-7.5-11.7-8.165-19.971a38.005,38.005,0,0,1,1.048-12.8C232.873,711.272,234.769,707.036,238.3,700.912Z" transform="translate(-213.371 -700.691)"/>
    <path id="路径_319" data-name="路径 319" class="cls-3" d="M266.192,714.313s-7.282,6.124-7.613,13.571,8.11,1.324,17.047-3.806Z" transform="translate(-237.185 -711.224)"/>
    <path id="路径_320" data-name="路径 320" class="cls-4" d="M290.291,770.989l-15.723,8.772s-1.1,1.158.828,2.593,13.075,7.558,13.075,7.558l9.213-9.158s.662-2.1.221-2.648S290.291,770.989,290.291,770.989Z" transform="translate(-249.313 -755.046)"/>
    <path id="路径_321" data-name="路径 321" class="cls-5" d="M292.436,772.2s-14.523,7.7-15.226,8.165a1.409,1.409,0,0,0-.11,2.427c1.1.993,13.351,7.723,13.351,7.723l8.937-8.827s.552-2.1.221-2.648S292.436,772.2,292.436,772.2Z" transform="translate(-251.017 -755.986)"/>
    <path id="路径_322" data-name="路径 322" class="cls-6" d="M276.627,841.955s-9.6-8.055-13.516-6.344,1.269,12.3,5.3,14.84Z" transform="translate(-239.621 -804.827)"/>
  </g>
  <g id="组_57" data-name="组 57" transform="translate(63.31 4.713)">
    <g id="组_55" data-name="组 55" transform="translate(1.718 31.792)">
      <g id="组_54" data-name="组 54">
        <path id="路径_323" data-name="路径 323" class="cls-7" d="M451.005,868.926v-6.768h1.367v3.005l2.76-3.005h1.837l-2.548,2.636,2.687,4.132H455.34l-1.86-3.176-1.108,1.131v2.045Z" transform="translate(-451.005 -862.043)"/>
        <path id="路径_324" data-name="路径 324" class="cls-7" d="M497.286,862.158h1.366v3.666a7.582,7.582,0,0,0,.051,1.131,1.1,1.1,0,0,0,.418.667,1.454,1.454,0,0,0,.9.252,1.376,1.376,0,0,0,.877-.238.94.94,0,0,0,.355-.584,7.631,7.631,0,0,0,.06-1.149v-3.744h1.367v3.555a9.121,9.121,0,0,1-.111,1.722,1.9,1.9,0,0,1-.409.849,2.061,2.061,0,0,1-.8.552,3.465,3.465,0,0,1-1.3.205,3.747,3.747,0,0,1-1.47-.224,2.1,2.1,0,0,1-.792-.582,1.867,1.867,0,0,1-.383-.75,8.228,8.228,0,0,1-.134-1.717Z" transform="translate(-486.79 -862.043)"/>
        <path id="路径_325" data-name="路径 325" class="cls-7" d="M547.488,868.926H546l-.591-1.537h-2.705l-.558,1.537H540.7l2.636-6.768h1.445Zm-2.516-2.677-.932-2.511-.914,2.511Z" transform="translate(-520.355 -862.043)"/>
        <path id="路径_326" data-name="路径 326" class="cls-7" d="M616.284,868.926v-6.768h1.366v6.768Z" transform="translate(-578.799 -862.043)"/>
        <path id="路径_327" data-name="路径 327" class="cls-7" d="M644.409,868.926v-6.768h1.33l2.77,4.52v-4.52h1.269v6.768h-1.371l-2.728-4.413v4.413Z" transform="translate(-600.546 -862.043)"/>
        <path id="路径_328" data-name="路径 328" class="cls-7" d="M690.622,868.926V863.3h-2.008v-1.145h5.378V863.3h-2v5.623Z" transform="translate(-634.725 -862.043)"/>
        <path id="路径_329" data-name="路径 329" class="cls-7" d="M732.514,868.926v-6.768h5.018V863.3H733.88v1.5h3.4v1.14h-3.4v1.842h3.781v1.14Z" transform="translate(-668.669 -862.043)"/>
        <path id="路径_330" data-name="路径 330" class="cls-7" d="M776.78,869.115V862.4h1.367v5.572h3.4v1.14Z" transform="translate(-702.895 -862.232)"/>
        <path id="路径_331" data-name="路径 331" class="cls-7" d="M818.542,869.115V862.4h1.366v5.572h3.4v1.14Z" transform="translate(-735.186 -862.232)"/>
        <path id="路径_332" data-name="路径 332" class="cls-7" d="M859.959,868.926v-6.768h1.366v6.768Z" transform="translate(-767.209 -862.043)"/>
        <path id="路径_333" data-name="路径 333" class="cls-7" d="M890.369,866.045V864.9h2.945v2.7a3.713,3.713,0,0,1-1.244.732,4.53,4.53,0,0,1-1.65.316,3.7,3.7,0,0,1-1.851-.445,2.833,2.833,0,0,1-1.186-1.274,4.118,4.118,0,0,1-.4-1.8,3.9,3.9,0,0,1,.443-1.879,2.984,2.984,0,0,1,1.3-1.26,3.5,3.5,0,0,1,1.62-.337,3.234,3.234,0,0,1,1.969.528,2.388,2.388,0,0,1,.912,1.461l-1.357.254a1.431,1.431,0,0,0-.538-.787,1.626,1.626,0,0,0-.985-.288,1.852,1.852,0,0,0-1.424.568,2.391,2.391,0,0,0-.528,1.685,2.651,2.651,0,0,0,.535,1.807,1.788,1.788,0,0,0,1.4.6,2.352,2.352,0,0,0,.861-.169,2.953,2.953,0,0,0,.741-.409v-.859Z" transform="translate(-788.106 -861.65)"/>
        <path id="路径_334" data-name="路径 334" class="cls-7" d="M936.747,868.926v-6.768h5.018V863.3h-3.652v1.5h3.4v1.14h-3.4v1.842h3.781v1.14Z" transform="translate(-826.582 -862.043)"/>
        <path id="路径_335" data-name="路径 335" class="cls-7" d="M980.911,868.926v-6.768h1.329l2.77,4.52v-4.52h1.269v6.768h-1.371l-2.728-4.413v4.413Z" transform="translate(-860.73 -862.043)"/>
        <path id="路径_336" data-name="路径 336" class="cls-7" d="M1027.124,868.926V863.3h-2.008v-1.145h5.378V863.3h-2v5.623Z" transform="translate(-894.909 -862.043)"/>
      </g>
    </g>
    <g id="组_56" data-name="组 56" transform="translate(0 0)">
      <path id="路径_337" data-name="路径 337" class="cls-7" d="M444.871,732.99v-1.646h-1.44V728.26a21.192,21.192,0,0,0,7.61-2.16h-7.2v-3.188H453.92v-1.44h4.216v1.44h9.975V726.1h-11.62a14.22,14.22,0,0,1-6.067,3.908h12.134a24.305,24.305,0,0,1-4.936-3.085h5.759a8.575,8.575,0,0,0,4.833,1.44v3.085h-1.131v1.543Zm23.446,1.337v3.085H452.069l-.72,1.44H464.1q2.981-.1,2.982,2.982v1.851a2.182,2.182,0,0,1-2.468,2.468h-18.2l-.1-2.982h16.351v-.411q0-.925-1.542-.925H448.47q-2.572,0-2.16-2.571l1.028-1.851h-3.7v-3.085Z" transform="translate(-443.431 -721.473)"/>
      <path id="路径_338" data-name="路径 338" class="cls-7" d="M610.694,736.3v-3.188h4.525l.72-2.159h-4.628v-3.085h5.656l.617-1.542H610.9v-3.5h24.577v3.5H622.109l-.514,1.542h8.638q3.6-.1,3.6,3.291v1.954h1.748V736.3Zm20.464,1.234q3.495,0,3.5,3.5v6.17H611.722v-6.067q0-3.7,4.319-3.6Zm-2.365,3.394H616.041v2.879h14.294v-1.542Q630.335,740.933,628.793,740.932Zm-9.049-7.815h9.769v-1.131q0-1.027-1.337-1.028h-7.712Z" transform="translate(-572.759 -722.525)"/>
      <path id="路径_339" data-name="路径 339" class="cls-7" d="M791.53,722.4v2.674h-3.6v1.44h3.908v2.879h-4.525l-.514.823h3.394l1.851,3.6h-4.216l-1.542-2.879q-2.263,2.572-7.918,3.393v-3.5a15.664,15.664,0,0,0,3.908-1.44h-4.01v-2.879h5.244v-.72c0-.479-.206-.72-.617-.72h-.617l-.309.72h-4.01l1.44-4.319h3.8L783,722.4Zm7.3,12.34q3.6-.1,3.6,3.6v7.815H778.779v-7.918q0-3.495,4.113-3.5ZM783.1,739.057h14.911v-.411q.1-.926-1.748-.926H783.1Zm13.163,2.879H783.1v1.131h14.911v-.308Q798.11,741.937,796.26,741.937Zm6.479-16.659v8.535H792.97v-8.638q0-3.186,3.291-3.188h3.291Q802.737,721.886,802.739,725.278Zm-6.067.1v5.039h2.468v-4.011a.91.91,0,0,0-1.028-1.028Z" transform="translate(-702.087 -721.473)"/>
      <path id="路径_340" data-name="路径 340" class="cls-7" d="M946.54,725.278l2.982-3.8h4.73l-3.085,3.907h2.982q1.335,0,1.029-.617l-.72-1.44h4.01l1.028,2.365q.718,2.572-2.262,2.88H948.7Q945.82,728.26,946.54,725.278ZM959.189,744.2q0,1.851-1.954,1.851h-2.057V744.4q.1-1.441-1.645-1.44h-2.982v2.879h-4.01V732.888q0-3.186,2.982-3.188h6.684q3.085-.1,2.982,2.982Zm-5.656-11.517h-2.982v2.468h4.628v-1.337Q955.178,732.683,953.533,732.682Zm0,5.347h-2.982v2.262h4.628V739.16Q955.178,738.03,953.533,738.029Zm11.209-10.9v2.262q0,.617.72.617h5.45V733.4h-7.4a2.635,2.635,0,0,1-2.982-2.982v-8.844h4.216v2.16h5.964v3.393Zm0,12.854v2.262c0,.344.24.514.72.514h5.553V744.4a1.455,1.455,0,0,1-1.646,1.645h-5.861a2.636,2.636,0,0,1-2.982-2.982v-8.535h4.216v2.057h6.067v3.393Z" transform="translate(-832.325 -721.473)"/>
    </g>
  </g>
</svg>
