<svg id="组_18" data-name="组 18" xmlns="http://www.w3.org/2000/svg" width="29.478" height="29.484" viewBox="0 0 29.478 29.484">
  <defs>
    <style>
      .cls-1 {
        fill: #0cf;
      }
    </style>
  </defs>
  <path id="路径_59" data-name="路径 59" class="cls-1" d="M108.552,99.118a9.364,9.364,0,1,1-6.619,2.743,9.3,9.3,0,0,1,6.619-2.743m0-3.118a12.482,12.482,0,1,0,8.823,3.657A12.432,12.432,0,0,0,108.552,96Z" transform="translate(-96.075 -96)"/>
  <path id="路径_60" data-name="路径 60" class="cls-1" d="M329.6,413.023a1.561,1.561,0,0,0-1.1,2.665l6.619,6.619a1.56,1.56,0,0,0,2.2-2.207l-6.619-6.619A1.55,1.55,0,0,0,329.6,413.023Zm-4.6-8.366a1.554,1.554,0,0,0-1.1-.457h-6.236a1.563,1.563,0,0,0-1.563,1.563,1.561,1.561,0,0,0,1.559,1.559h6.24a1.558,1.558,0,0,0,1.1-2.665Z" transform="translate(-308.304 -393.279)"/>
  <path id="路径_61" data-name="路径 61" class="cls-1" d="M406.765,316.557a1.561,1.561,0,0,0-2.665,1.106v6.24a1.561,1.561,0,0,0,1.559,1.559,1.563,1.563,0,0,0,1.563-1.563l0-6.236A1.574,1.574,0,0,0,406.765,316.557Z" transform="translate(-393.185 -308.301)"/>
</svg>
