<?xml version="1.0" standalone="no"?><!DOCTYPE svg PUBLIC "-//W3C//DTD SVG 1.1//EN" "http://www.w3.org/Graphics/SVG/1.1/DTD/svg11.dtd"><svg t="1589448398446" class="icon" viewBox="0 0 1024 1024" version="1.1" xmlns="http://www.w3.org/2000/svg" p-id="3853" xmlns:xlink="http://www.w3.org/1999/xlink" width="200" height="200"><defs><style type="text/css"></style></defs><path d="M826.368 673.792c49.664-36.352 78.848-94.208 78.848-155.648 4.608-103.936-76.288-192-180.224-196.608-103.936-4.608-192 76.288-196.608 180.224v16.384c0 61.44 29.184 119.296 78.848 155.648-99.328 50.176-165.376 148.992-173.056 260.608 0 17.92 9.216 32.256 26.624 32.256h510.976c17.408 0 26.624-14.336 26.624-32.256-8.192-110.592-73.216-209.408-172.032-260.608z" p-id="3854"></path><path d="M519.68 657.408c-45.568-56.832-65.536-129.536-56.32-201.728 9.728-66.048 45.056-125.44 98.304-165.376 68.096-47.104 154.624-58.88 232.448-30.72 68.608 26.112 70.656 53.76 78.848 53.76 17.408 0 31.232-14.336 31.232-31.744V228.352c3.584-90.624-66.56-166.912-157.184-171.008H182.784C92.16 61.44 22.016 137.728 25.6 228.352V783.36c-3.584 90.624 66.56 166.912 157.184 171.008h125.44c15.36 2.048 29.696-9.216 31.744-24.576v-3.072c1.536-24.576 7.68-48.64 18.944-70.656 16.896-39.936 39.424-76.8 67.584-109.568 26.112-34.304 57.856-64.512 93.184-89.088zM245.76 194.56h228.352c11.264 0.512 20.48 8.704 21.504 19.968 2.56 13.824-6.656 26.624-19.968 29.184H247.296c-11.776 1.536-23.04-7.168-24.064-19.456v-3.584c-1.024-12.8 9.216-24.064 22.016-24.576h0.512V194.56z m-86.016-5.632c11.264 0 21.504 5.632 27.136 15.36 5.632 9.728 5.632 21.504 0 31.232-5.632 9.728-15.872 15.36-27.136 15.36-16.896 0-30.72-13.824-30.72-30.72 0-17.92 13.312-31.232 30.72-31.232z m178.688 446.976H150.528c-15.36 1.536-28.672-9.216-30.208-24.064-1.536-15.36 9.216-28.672 24.064-30.208H338.432c15.36-1.536 28.672 9.216 30.208 24.064s-9.216 28.672-24.064 30.208h-6.144z m62.976-155.136h-250.88c-17.408 0-31.744-9.728-31.232-27.648 0-15.36 12.8-27.648 28.16-27.648h254.464c15.36-1.536 29.184 9.728 30.72 25.088v2.048c0 15.36-12.288 27.648-27.136 27.648-1.536 1.024-2.56 1.024-4.096 0.512z" p-id="3855"></path></svg>