<?xml version="1.0" standalone="no"?><!DOCTYPE svg PUBLIC "-//W3C//DTD SVG 1.1//EN" "http://www.w3.org/Graphics/SVG/1.1/DTD/svg11.dtd"><svg t="1587888173112" class="icon" viewBox="0 0 1024 1024" version="1.1" xmlns="http://www.w3.org/2000/svg" p-id="1243" xmlns:xlink="http://www.w3.org/1999/xlink" width="200" height="200">
<defs>
  <style>
    .cls-1 {
      fill: #fc4f55;
    }
  </style>
</defs>
<path class="cls-1" d="M869.152 269.219c-19.951-47.292-48.605-89.74-85.142-126.112-36.536-36.536-78.984-65.026-126.111-85.142-49.016-20.69-100.906-31.117-154.602-31.117s-105.504 10.51-154.52 31.364c-47.291 19.95-89.74 48.605-126.111 85.141-36.536 36.537-65.026 78.984-85.142 126.112-20.69 49.016-31.282 100.906-31.282 154.602 0 53.614 10.428 105.585 31.282 154.601 19.951 47.292 48.606 89.74 85.142 126.112 36.536 36.536 78.984 65.026 126.111 85.142 11.577 4.844 23.482 9.277 35.387 13.054l-54.763 135.8h-70.61c-19.376 0-34.812 15.682-34.812 34.976 0 19.377 15.682 34.812 34.813 34.812h488.846c19.377 0 34.812-15.681 34.812-34.812 0-19.376-15.682-34.976-34.812-34.976h-64.287L628.998 800.76c25.124-8.374 49.509-19.376 72.662-32.759 59.197-34.237 108.952-83.582 143.6-142.45 35.715-60.675 54.763-130.381 54.763-201.32 0.246-54.106-10.18-106.077-30.871-155.011z m-69.296 328.908c-30.132 50.987-73.154 93.845-124.551 123.484-51.972 30.132-111.333 45.978-171.926 45.978-91.792 0-178.248-35.715-243.192-100.741-65.026-65.026-100.741-151.235-100.741-243.192 0-91.792 35.797-178.247 100.741-243.192C325.214 115.438 411.423 79.723 503.38 79.723c91.792 0 178.248 35.797 243.192 100.741 65.026 65.027 100.741 151.236 100.741 243.192 0 61.414-16.338 121.76-47.456 174.471zM386.792 937.955L436.3 814.881a404.154 404.154 0 0 0 67.08 5.583c24.959 0 49.754-2.38 74.139-6.896l49.016 124.387H386.792z" fill="#2C2C2C" p-id="1244"></path>
<path class="cls-1" d="M503.215 268.316c-106.243 0-192.78 86.455-192.78 192.78 0 106.242 86.455 192.78 192.78 192.78s192.78-86.456 192.78-192.78-86.538-192.78-192.78-192.78z m0 337.036c-79.477 0-144.175-64.616-144.175-144.174 0-79.477 64.616-144.175 144.175-144.175 79.476 0 144.174 64.616 144.174 144.175-0.082 79.558-64.698 144.174-144.174 144.174z m0-368.154c27.34 0 49.755-22.332 49.755-49.755s-22.332-49.755-49.755-49.755-49.755 22.333-49.755 49.755 22.332 49.755 49.755 49.755z" fill="#2C2C2C" p-id="1245"></path></svg>