<?xml version="1.0" standalone="no"?><!DOCTYPE svg PUBLIC "-//W3C//DTD SVG 1.1//EN" "http://www.w3.org/Graphics/SVG/1.1/DTD/svg11.dtd"><svg t="1589448650643" class="icon" viewBox="0 0 1024 1024" version="1.1" xmlns="http://www.w3.org/2000/svg" p-id="6018" xmlns:xlink="http://www.w3.org/1999/xlink" width="200" height="200"><defs><style type="text/css"></style></defs><path d="M716.942 347.537H422.436a28.602 28.602 0 0 0-26.178 30.784 29.814 29.814 0 0 0 26.905 30.541h293.78a28.602 28.602 0 0 0 27.147-30.541 28.845 28.845 0 0 0-27.148-30.784z m0 182.521H422.436a28.602 28.602 0 0 0-26.178 30.784 29.814 29.814 0 0 0 26.905 30.541h293.78a28.602 28.602 0 0 0 27.147-30.541 27.633 27.633 0 0 0-27.148-30.784z m0 189.793H422.436a28.602 28.602 0 0 0-26.178 30.541 30.057 30.057 0 0 0 26.905 30.784h293.78a30.784 30.784 0 0 0 0-61.325zM279.668 378.32a34.42 34.42 0 0 0 68.596 0h-0.484a34.42 34.42 0 1 0-68.597 0z m0 180.824a34.42 34.42 0 1 0 34.42-34.42 34.42 34.42 0 0 0-34.42 34.42z m0 191.49a34.42 34.42 0 1 0 34.42-34.178 34.42 34.42 0 0 0-34.42 34.178zM841.774 962H183.923a54.296 54.296 0 0 1-54.296-54.053V170.349a54.296 54.296 0 0 1 54.296-54.053h656.154a54.296 54.296 0 0 1 54.053 54.053v737.598A52.841 52.841 0 0 1 841.774 962z m-652.518-59.386h648.882v-728.63H189.256zM319.42 228.281a28.602 28.602 0 0 1-29.087-28.845V90.845a29.087 29.087 0 0 1 57.447 0v106.652a28.845 28.845 0 0 1-28.36 30.784z m387.826 0a28.602 28.602 0 0 1-29.087-28.845V90.845a29.087 29.087 0 0 1 57.932 0v106.652a28.117 28.117 0 0 1-29.814 30.784z" p-id="6019"></path></svg>