<svg xmlns="http://www.w3.org/2000/svg" width="24.878" height="24.882" viewBox="0 0 24.878 24.882">
  <defs>
    <style>
      .cls-1 {
        fill: #fc4f55;
      }
    </style>
  </defs>
  <path id="路径_250" data-name="路径 250" class="cls-1" d="M193.488,186.295a6.454,6.454,0,0,1,3.973,1.9,6.749,6.749,0,0,1,1.514,6.994,1.944,1.944,0,0,0,.449,2.023l7.408,7.487a1.518,1.518,0,0,1,0,2.126,1.432,1.432,0,0,1-2.045,0l-7.275-7.353a1.94,1.94,0,0,0-2.142-.422,6.507,6.507,0,0,1-7.184-1.417,6.6,6.6,0,0,1-1.909-4.6l.77.778a4.872,4.872,0,0,0,3.487,1.458,4.923,4.923,0,0,0,4.218-2.395,5.107,5.107,0,0,0-.844-6.166l-.42-.42m-.649-1.975c-.126,0-.253,0-.381.008a1.556,1.556,0,0,0-1.03,2.649l1.092,1.1a3.141,3.141,0,0,1,.566,3.786,2.965,2.965,0,0,1-4.665.583l-1.386-1.4a1.553,1.553,0,0,0-2.647.9A8.572,8.572,0,0,0,186.8,199a8.453,8.453,0,0,0,9.328,1.837l7.275,7.353a3.374,3.374,0,0,0,4.809,0,3.462,3.462,0,0,0,0-4.859l-7.408-7.489a8.652,8.652,0,0,0-1.961-9.015A8.4,8.4,0,0,0,192.839,184.32Z" transform="translate(-184.328 -184.32)"/>
</svg>
