<svg xmlns="http://www.w3.org/2000/svg" width="20.305" height="20.307" viewBox="0 0 20.305 20.307">
  <defs>
    <style>
      .cls-1 {
        fill: #0cf;
      }
    </style>
  </defs>
  <path id="路径_63" data-name="路径 63" class="cls-1" d="M102.976,111.467,98,106.494v0l1.324-1.324a1.406,1.406,0,0,1,1.534-.306l3.349,1.387h0l6.463-4.983v0l-1.73-1.73v0l.993-.993a1.407,1.407,0,0,1,1.991,0l.993.993,0,0,3.978,3.98,0,0,.993.993a1.407,1.407,0,0,1,0,1.991l-.993.993h0l-1.732-1.73h0l-4.983,6.461v0l1.387,3.352a1.406,1.406,0,0,1-.306,1.534l-1.324,1.324h0l-4.969-4.974h0L100,118.425H98v-1.989l4.969-4.969Z" transform="translate(-98 -98.125)"/>
</svg>
