<?xml version="1.0" standalone="no"?><!DOCTYPE svg PUBLIC "-//W3C//DTD SVG 1.1//EN" "http://www.w3.org/Graphics/SVG/1.1/DTD/svg11.dtd"><svg t="1589448860650" class="icon" viewBox="0 0 1024 1024" version="1.1" xmlns="http://www.w3.org/2000/svg" p-id="9521" xmlns:xlink="http://www.w3.org/1999/xlink" width="200" height="200"><defs><style type="text/css"></style></defs><path d="M512 512C371.2 512 256 396.8 256 256s115.2-256 256-256 256 115.2 256 256-115.2 256-256 256z m0-448C403.2 64 320 147.2 320 256s83.2 192 192 192 192-83.2 192-192-83.2-192-192-192zM544 640H384c-140.8 0-256 115.2-256 256v128H64v-128c0-179.2 140.8-320 320-320h236.8c-25.6 19.2-51.2 38.4-76.8 64zM640 640h320v64h-320zM640 768h256v64h-256z" p-id="9522"></path><path d="M640 896h192v64h-192z" p-id="9523"></path></svg>