<svg xmlns="http://www.w3.org/2000/svg" width="17.415" height="18.657" viewBox="0 0 17.415 18.657">
  <g id="组_515" data-name="组 515" transform="translate(-176.76 -250.699)">
    <path id="路径_421" data-name="路径 421" class="cls-1" d="M185.675,251.9a4.191,4.191,0,0,1,4.188,4.186,4.017,4.017,0,0,1-.265,1.422.288.288,0,0,0,.3.385,6.058,6.058,0,0,1,.62-.033h0a.3.3,0,0,0,.286-.2,5.186,5.186,0,0,0,.249-1.575v0a5.383,5.383,0,0,0-10.765.007,5.323,5.323,0,0,0,2.185,4.294.289.289,0,0,1-.063.5,9.16,9.16,0,0,0-5.653,7.423.29.29,0,0,0,.288.32h.62a.287.287,0,0,0,.286-.251,8.232,8.232,0,0,1,6.523-6.814.291.291,0,0,0,.209-.153,6.873,6.873,0,0,1,.457-.759.291.291,0,0,0-.184-.455,4.177,4.177,0,0,1,.713-8.294Z" transform="translate(0 0)"/>
    <path id="联合_29" data-name="联合 29" class="cls-2" d="M3433.56,6505.6a3.132,3.132,0,0,1,1.914-2.881.1.1,0,0,1-.019-.058v-3.647a.113.113,0,0,1,.119-.1h3.18a.112.112,0,0,1,.119.1v.7a.112.112,0,0,1-.119.1h-2.019a.112.112,0,0,0-.119.106v.714h2c.067,0,.123.036.123.08v.73c0,.044-.055.08-.123.08h-2v.945h.065a3.123,3.123,0,1,1-3.122,3.125Zm1.036,0a2.086,2.086,0,1,0,2.086-2.086A2.087,2.087,0,0,0,3434.6,6505.6Z" transform="translate(-3246.127 -6239.864)"/>
  </g>
</svg>
