<svg xmlns="http://www.w3.org/2000/svg" width="17.356" height="21.639" viewBox="0 0 17.356 21.639">
<g id="组_511" data-name="组 511" transform="translate(-105.4 -3)">
    <path id="路径_408" data-name="路径 408" class="cls-1" d="M114.079,13.062a5.03,5.03,0,1,1,3.558-1.472A5,5,0,0,1,114.079,13.062Zm0-8.365a3.335,3.335,0,1,0,3.335,3.335A3.338,3.338,0,0,0,114.079,4.7Zm7.83,19.942a.848.848,0,0,1-.849-.849V19.4a3.4,3.4,0,0,0-3.394-3.394h-7.175A3.4,3.4,0,0,0,107.1,19.4v4.387a.849.849,0,1,1-1.7,0V19.4a5.092,5.092,0,0,1,5.092-5.092h7.173a5.092,5.092,0,0,1,5.092,5.092v4.387A.845.845,0,0,1,121.909,24.639Z"/>
    <path id="路径_409" data-name="路径 409" class="cls-1" d="M245.849,850.734a.848.848,0,0,1-.849-.849v-2.037a.849.849,0,1,1,1.7,0v2.037A.848.848,0,0,1,245.849,850.734Zm9.738,0a.848.848,0,0,1-.849-.849v-2.037a.849.849,0,1,1,1.7,0v2.037A.848.848,0,0,1,255.586,850.734Z" transform="translate(-136.638 -826.095)"/>
  </g>
</svg>
