<svg xmlns="http://www.w3.org/2000/svg" width="20.956" height="32.891" viewBox="0 0 20.956 32.891">
  <defs>
    <style>
      .cls-1 {
        fill: #fc4f55;
      }
    </style>
  </defs>
  <g id="组_216" data-name="组 216" transform="translate(123.629 -179.438)">
    <path id="路径_262" data-name="路径 262" class="cls-1" d="M-105.1,206.67c-.4,1.081-1.524,3.323-4.005,3.379a3.721,3.721,0,0,1-3.754-3.749v-3.61h4.6a2.123,2.123,0,0,0,2.053-1.583l1.852-7.037v-6.523a2.437,2.437,0,0,0-2.437-2.437h-1.532v-4.537a1.134,1.134,0,0,0-1.134-1.134h0a1.134,1.134,0,0,0-1.134,1.134v4.537h-6.805v-4.537a1.134,1.134,0,0,0-1.134-1.134h0a1.134,1.134,0,0,0-1.134,1.134v4.53s-.716,0-1.54.007a2.438,2.438,0,0,0-2.43,2.437v6.523l1.852,7.037a2.123,2.123,0,0,0,2.053,1.583h4.6v3.294a6.309,6.309,0,0,0,5.208,6.262,6.256,6.256,0,0,0,7.239-5.552.546.546,0,0,0-.543-.6l-1.063,0A.872.872,0,0,0-105.1,206.67Zm-16.265-13.1v-4.756a1.435,1.435,0,0,1,1.435-1.435h11.875a1.435,1.435,0,0,1,1.435,1.435v4.75l-.042.327-1.463,5.57a1.288,1.288,0,0,1-1.246.961h-9.29a1.288,1.288,0,0,1-1.248-.971l-1.415-5.565Z" transform="translate(0 0)"/>
    <rect id="矩形_97" data-name="矩形 97" class="cls-1" width="9.073" height="2.268" rx="1.134" transform="translate(-118.412 193.615)"/>
  </g>
</svg>
