<?xml version="1.0" standalone="no"?><!DOCTYPE svg PUBLIC "-//W3C//DTD SVG 1.1//EN" "http://www.w3.org/Graphics/SVG/1.1/DTD/svg11.dtd"><svg t="1589448304764" class="icon" viewBox="0 0 1024 1024" version="1.1" xmlns="http://www.w3.org/2000/svg" p-id="2428" xmlns:xlink="http://www.w3.org/1999/xlink" width="200" height="200"><defs><style type="text/css"></style></defs><path d="M512 1024c-140.8 0-268.8-57.6-358.4-166.4-12.8-12.8-6.4-32 6.4-44.8 12.8-12.8 32-6.4 44.8 6.4C281.6 908.8 390.4 960 512 960c89.6 0 172.8-25.6 243.2-83.2 12.8-12.8 32-6.4 44.8 6.4 12.8 12.8 6.4 32-6.4 44.8-76.8 64-179.2 96-281.6 96z m422.4-345.6c-25.6-6.4-32-19.2-32-38.4 6.4-25.6 6.4-51.2 6.4-76.8 0-153.6-83.2-288-224-352-12.8-6.4-25.6-25.6-12.8-44.8 6.4-12.8 25.6-19.2 44.8-12.8 160 76.8 256 236.8 256 409.6 0 32 0 64-6.4 89.6 0 19.2-12.8 25.6-32 25.6z m-857.6-96c-19.2 0-32-12.8-32-32 6.4-204.8 153.6-384 358.4-435.2 19.2-6.4 32 6.4 38.4 25.6 6.4 19.2-6.4 32-25.6 38.4-172.8 38.4-300.8 192-307.2 371.2 0 19.2-12.8 32-32 32z" p-id="2429"></path><path d="M518.4 256C448 256 384 198.4 384 128S441.6 0 512 0s128 57.6 128 128-51.2 128-121.6 128z m0-192c-38.4 0-64 32-64 64s25.6 64 64 64 64-32 64-64-32-64-64-64zM128 883.2c-70.4 0-128-57.6-128-128s57.6-128 128-128 128 57.6 128 128-57.6 128-128 128z m0-192c-38.4 0-64 32-64 64 0 38.4 25.6 64 64 64s64-32 64-64c0-38.4-25.6-64-64-64z m768 192c-70.4 0-128-57.6-128-128s57.6-128 128-128 128 57.6 128 128-57.6 128-128 128z m0-192c-38.4 0-64 32-64 64 0 38.4 25.6 64 64 64s64-32 64-64c0-38.4-32-64-64-64z" p-id="2430"></path></svg>