<svg xmlns="http://www.w3.org/2000/svg" width="26" height="27.937" viewBox="0 0 26 27.937">
  <defs>
  </defs>
  <g id="组_27" data-name="组 27" transform="translate(-66 -574)">
    <path id="路径_70" data-name="路径 70" class="cls-1" d="M2228.914,1180.041h.079l15.3,0-.089-.089a5.863,5.863,0,0,0,4.837-5.753V1159.92a5.862,5.862,0,0,0-5.842-5.882h-2.418a3.313,3.313,0,0,0-3-1.933h-3.449a3.36,3.36,0,0,0-3,1.933h-2.484a5.891,5.891,0,0,0-5.807,5.955v14.24a5.885,5.885,0,0,0,5.876,5.808Zm2.438-23.186a3.283,3.283,0,0,0,2.921,1.82h3.471l.132,0a3.2,3.2,0,0,0,2.864-1.822h2.339a3.174,3.174,0,0,1,3.14,3.138v14.2a3.174,3.174,0,0,1-3.137,3.14h-14.2a3.174,3.174,0,0,1-3.14-3.138V1160a3.3,3.3,0,0,1,2.751-3.211v.069Z" transform="translate(-2157.038 -578.104)"/>
    <path id="路径_71" data-name="路径 71" class="cls-1" d="M2232.387,1165.944h2.857a1.409,1.409,0,0,0,0-2.818h-2.82a1.154,1.154,0,0,0-.22,0,1.336,1.336,0,0,0-1.21,1.43,1.4,1.4,0,0,0,1.4,1.386Z" transform="translate(-2159.036 -577.101)"/>
    <path id="路径_72" data-name="路径 72" class="cls-1" d="M2232.387,1171.625h7.407a1.409,1.409,0,0,0,.989-2.408,1.4,1.4,0,0,0-.993-.41h-7.368a1.173,1.173,0,0,0-.221,0,1.333,1.333,0,0,0-1.209,1.43,1.4,1.4,0,0,0,1.4,1.386Z" transform="translate(-2159.035 -577.1)"/>
  </g>
</svg>
