<svg xmlns="http://www.w3.org/2000/svg" width="18.756" height="18.764" viewBox="0 0 18.756 18.764">
  <g id="组_514" data-name="组 514" transform="translate(-176.76 -250.699)">
    <path id="路径_419" data-name="路径 419" class="cls-1" d="M185.509,251.875a4.113,4.113,0,0,1,4.11,4.108,3.943,3.943,0,0,1-.26,1.4.283.283,0,0,0,.3.378,5.938,5.938,0,0,1,.608-.032h0a.29.29,0,0,0,.28-.2,5.09,5.09,0,0,0,.245-1.546v0a5.282,5.282,0,0,0-10.565.007,5.224,5.224,0,0,0,2.144,4.214.283.283,0,0,1-.061.493,8.989,8.989,0,0,0-5.547,7.285.284.284,0,0,0,.283.315h.609a.282.282,0,0,0,.281-.246,8.079,8.079,0,0,1,6.4-6.687.286.286,0,0,0,.205-.15,6.742,6.742,0,0,1,.449-.745.286.286,0,0,0-.18-.446,4.1,4.1,0,0,1,.7-8.14Z" transform="translate(0 0)"/>
    <path id="路径_420" data-name="路径 420" class="cls-1" d="M274.547,343.537v-.486a.344.344,0,0,0-.344-.344h-.595a.354.354,0,0,1-.345-.283,4.055,4.055,0,0,0-.559-1.353.344.344,0,0,1,.044-.431l.423-.424a.344.344,0,0,0,0-.486l-.344-.344a.344.344,0,0,0-.486,0l-.423.423a.346.346,0,0,1-.434.043,4.061,4.061,0,0,0-1.356-.559.346.346,0,0,1-.277-.337v-.6a.344.344,0,0,0-.344-.344h-.486a.344.344,0,0,0-.344.344v.6a.346.346,0,0,1-.277.337,4.061,4.061,0,0,0-1.356.56.346.346,0,0,1-.434-.043l-.423-.423a.344.344,0,0,0-.486,0l-.344.344a.344.344,0,0,0,0,.486l.422.422a.346.346,0,0,1,.043.434,4.062,4.062,0,0,0-.56,1.356.346.346,0,0,1-.337.277h-.6a.344.344,0,0,0-.344.344v.486a.344.344,0,0,0,.344.344h.6a.346.346,0,0,1,.337.277,4.063,4.063,0,0,0,.56,1.356.346.346,0,0,1-.043.434l-.422.422a.344.344,0,0,0,0,.486l.344.344a.344.344,0,0,0,.486,0l.423-.423a.346.346,0,0,1,.434-.043,4.062,4.062,0,0,0,1.356.56.346.346,0,0,1,.277.337v.6a.344.344,0,0,0,.344.344h.486a.344.344,0,0,0,.344-.344v-.6a.344.344,0,0,1,.274-.336,4.077,4.077,0,0,0,1.359-.56.346.346,0,0,1,.434.043l.423.423a.344.344,0,0,0,.486,0l.344-.344a.344.344,0,0,0,0-.486l-.423-.424a.346.346,0,0,1-.043-.434,4.062,4.062,0,0,0,.56-1.356.346.346,0,0,1,.337-.277h.6A.344.344,0,0,0,274.547,343.537Zm-4.034,2.432a2.962,2.962,0,0,1-3.923-3.923,2.676,2.676,0,0,1,1.426-1.426,2.962,2.962,0,0,1,3.923,3.923A2.676,2.676,0,0,1,270.513,345.968Z" transform="translate(-79.031 -79.113)"/>
  </g>
</svg>
