<svg xmlns="http://www.w3.org/2000/svg" width="29.726" height="24.771" viewBox="0 0 29.726 24.771">
  <defs>
    <style>
      .cls-1 {
        fill: #fc4f55;
      }
    </style>
  </defs>
  <path id="路径_266" data-name="路径 266" class="cls-1" d="M89.119,135.366v6.193a3.105,3.105,0,0,1-3.1,3.1H62.49a3.105,3.105,0,0,1-3.1-3.1v-6.193a5.3,5.3,0,0,1,.31-1.451l3.812-11.728a3.208,3.208,0,0,1,1.219-1.664,3.28,3.28,0,0,1,1.955-.639H81.824a3.281,3.281,0,0,1,1.955.639A3.211,3.211,0,0,1,85,122.187l3.812,11.728a5.312,5.312,0,0,1,.31,1.451Zm-2.477,6.193v-6.193a.628.628,0,0,0-.619-.619H62.49a.628.628,0,0,0-.619.619v6.193a.628.628,0,0,0,.619.619H86.023a.628.628,0,0,0,.619-.619Zm-23.8-9.289H85.675l-3.038-9.328a.787.787,0,0,0-.31-.416.854.854,0,0,0-.5-.164H66.69a.854.854,0,0,0-.5.164.786.786,0,0,0-.31.416l-3.038,9.328Zm16.227,5.1a1.542,1.542,0,1,1-1.093-.455A1.492,1.492,0,0,1,79.066,137.369Zm4.954,0a1.542,1.542,0,1,1-1.093-.455A1.492,1.492,0,0,1,84.02,137.369Z" transform="translate(-59.394 -119.884)"/>
</svg>
