<svg xmlns="http://www.w3.org/2000/svg" width="17.355" height="19.283" viewBox="0 0 17.355 19.283">
  <path id="路径_443" data-name="路径 443" class="cls-1" d="M239.426,192a1.928,1.928,0,0,1,1.928,1.928v13.647a2.892,2.892,0,0,1-1.041,2.221l-.964.8a2.892,2.892,0,0,1-3.7,0l-.964-.8a2.892,2.892,0,0,1-1.041-2.221V193.928A1.928,1.928,0,0,1,235.57,192Zm-9.641,0a1.928,1.928,0,0,1,1.928,1.928v15.426a1.928,1.928,0,0,1-1.928,1.928h-3.857A1.928,1.928,0,0,1,224,209.355V193.928A1.928,1.928,0,0,1,225.928,192Zm5.784,15.426v.543a.964.964,0,0,0,.347.74l.964.8a.964.964,0,0,0,1.234,0l.964-.8a.964.964,0,0,0,.347-.74v-.543Zm-5.784-13.5h-3.857v2.892h1.928v1.928h-1.928v1.928h1.928v1.928h-1.928v1.928h1.928v1.928h-1.928v2.892h3.857Zm9.641,3.857H235.57V205.5h3.857Zm0-3.857H235.57v1.928h3.857Z" transform="translate(-224 -192)"/>
</svg>
