<svg xmlns="http://www.w3.org/2000/svg" width="32.034" height="29.122" viewBox="0 0 32.034 29.122">
  <defs>
    <style>
      .cls-1 {
        fill: #fc4f55;
      }
    </style>
  </defs>
  <path id="路径_265" data-name="路径 265" class="cls-1" d="M30.123,104.912a14.179,14.179,0,0,0-14.015-11.77,14.368,14.368,0,0,0-14.015,11.77,6.14,6.14,0,0,0-2,4.588c0,2.393,1.4,5.186,3.6,5.186,2,0,2-2.194,2-5.186,0-2.793,0-4.987-1.4-5.186a12.028,12.028,0,0,1,11.812-9.375,12.068,12.068,0,0,1,11.812,9.176c-1.4.4-1.4,2.393-1.4,5.186a12.988,12.988,0,0,0,.4,4.389,12.637,12.637,0,0,1-7.609,5.585,4.038,4.038,0,0,0-3.2-1.4c-2,0-3.606,1-3.606,2.194s1.6,2.194,3.606,2.194,3.6-1,3.6-2.194a13.376,13.376,0,0,0,7.809-5.785,1.512,1.512,0,0,0,1,.2c2.2,0,3.6-2.793,3.6-5.186a6.042,6.042,0,0,0-2-4.387Z" transform="translate(-0.09 -93.142)"/>
</svg>
