<svg xmlns="http://www.w3.org/2000/svg" width="28" height="25.335" viewBox="0 0 28 25.335">
  <defs>
  </defs>
  <g id="组_28" data-name="组 28" transform="translate(-65.864 -767.162)">
    <path id="路径_74" data-name="路径 74" class="cls-1" d="M2252.313,1354.677l-4.742-8.17a4.641,4.641,0,0,0-3.93-2.241h-9.491a4.552,4.552,0,0,0-3.92,2.25l-4.741,8.171a4.6,4.6,0,0,0,0,4.5l4.643,8.177a4.639,4.639,0,0,0,3.931,2.242h9.476l.47,0v-.029a4.853,4.853,0,0,0,3.565-2.221l4.74-8.171A4.6,4.6,0,0,0,2252.313,1354.677Zm-2.226,3.229-4.72,8.136a2.3,2.3,0,0,1-1.827,1h-9.5a1.942,1.942,0,0,1-1.785-.976l-4.727-8.144a2.3,2.3,0,0,1-.011-2.069l4.719-8.137a2.305,2.305,0,0,1,1.835-1h9.493a1.93,1.93,0,0,1,1.786.976l4.725,8.143A2.3,2.3,0,0,1,2250.087,1357.906Z" transform="translate(-2159.038 -577.104)"/>
    <path id="路径_75" data-name="路径 75" class="cls-1" d="M2239.389,1352.939h0a4.5,4.5,0,0,0,0,9.007h0a4.532,4.532,0,0,0,4.5-4.505,4.5,4.5,0,0,0-4.5-4.5Zm0,1.985h0l.043.471a2.05,2.05,0,0,1-.045,4.1h0a2.05,2.05,0,0,1,0-4.1h0Z" transform="translate(-2159.625 -577.615)"/>
  </g>
</svg>
