<svg id="组_238" data-name="组 238" xmlns="http://www.w3.org/2000/svg" width="11.513" height="11.513" viewBox="0 0 11.513 11.513">
  <defs>
    <style>
      .cls-1 {
        fill: #fff;
      }
    </style>
  </defs>
  <path id="路径_242" data-name="路径 242" class="cls-1" d="M133.756,128a5.757,5.757,0,1,0,5.756,5.757A5.763,5.763,0,0,0,133.756,128Zm0,10.554a4.8,4.8,0,1,1,4.8-4.8A4.8,4.8,0,0,1,133.756,138.554Z" transform="translate(-128 -128)"/>
  <path id="路径_243" data-name="路径 243" class="cls-1" d="M466.949,292.769l-1.99-1.151V288.48a.48.48,0,1,0-.959,0v3.358c0,.178.221.327.365.41a.709.709,0,0,0,.216.153l1.979,1.2a.429.429,0,0,0,.61-.176A.5.5,0,0,0,466.949,292.769Z" transform="translate(-458.963 -285.601)"/>
</svg>
