<svg xmlns="http://www.w3.org/2000/svg" width="38.837" height="37.788" viewBox="0 0 38.837 37.788">
  <defs>
    <style>
      .cls-1 {
        fill: #0cf;
      }
    </style>
  </defs>
  <g id="组_9" data-name="组 9" transform="translate(0 -13.511)">
    <path id="路径_44" data-name="路径 44" class="cls-1" d="M19.418,16.947A15.971,15.971,0,0,0,5.659,24.676a15.1,15.1,0,0,0,0,15.459,15.972,15.972,0,0,0,13.759,7.729A15.678,15.678,0,0,0,35.306,32.4,15.677,15.677,0,0,0,19.418,16.947ZM0,32.4A19.162,19.162,0,0,1,19.418,13.511a19.162,19.162,0,0,1,19.418,18.9A19.162,19.162,0,0,1,19.418,51.3,19.163,19.163,0,0,1,0,32.406Z" transform="translate(0 0)"/>
    <path id="路径_45" data-name="路径 45" class="cls-1" d="M238.833,198.751a14.758,14.758,0,0,0-8.574,2.534,1.742,1.742,0,1,1-1.983-2.865,19.233,19.233,0,0,1,21.114,0,1.742,1.742,0,1,1-1.983,2.865,14.755,14.755,0,0,0-8.574-2.535Zm0-8.719a3.488,3.488,0,1,1,3.478-3.488,3.483,3.483,0,0,1-3.478,3.488Zm-6.957-3.488a6.957,6.957,0,1,0,6.957-6.976A6.967,6.967,0,0,0,231.876,186.545Z" transform="translate(-218.876 -159.76)"/>
  </g>
</svg>
